<?xml version="1.0" encoding="UTF-8" standalone="no"?>
<svg
   width="152.43904"
   height="34.474575"
   viewBox="0 0 152.43904 34.474575"
   fill="none"
   version="1.1"
   id="svg8"
   sodipodi:docname="logo-aerdark.svg"
   inkscape:version="1.2.2 (b0a84865, 2022-12-01)"
   xmlns:inkscape="http://www.inkscape.org/namespaces/inkscape"
   xmlns:sodipodi="http://sodipodi.sourceforge.net/DTD/sodipodi-0.dtd"
   xmlns="http://www.w3.org/2000/svg"
   xmlns:svg="http://www.w3.org/2000/svg">
  <defs
     id="defs12" />
  <sodipodi:namedview
     id="namedview10"
     pagecolor="#ffffff"
     bordercolor="#000000"
     borderopacity="0.25"
     inkscape:showpageshadow="2"
     inkscape:pageopacity="0.0"
     inkscape:pagecheckerboard="0"
     inkscape:deskcolor="#d1d1d1"
     showgrid="false"
     inkscape:zoom="6.7168868"
     inkscape:cx="64.389949"
     inkscape:cy="7.3694855"
     inkscape:window-width="1800"
     inkscape:window-height="1097"
     inkscape:window-x="0"
     inkscape:window-y="44"
     inkscape:window-maximized="0"
     inkscape:current-layer="svg8" />
  <g
     inkscape:groupmode="layer"
     id="layer1"
     inkscape:label="text"
     transform="translate(-6.3008949,-7.1271186)">
    <text
       xml:space="preserve"
       style="font-size:24px;letter-spacing:2.03px;fill:#000080;stroke-width:2.29761"
       x="47.676746"
       y="30.427509"
       id="text498"
       transform="scale(0.84576739,1.1823582)"><tspan
         sodipodi:role="line"
         id="tspan496"
         x="47.676746"
         y="30.427509"
         style="font-style:normal;font-variant:normal;font-weight:normal;font-stretch:normal;font-size:24px;font-family:'Hiragino Sans GB';-inkscape-font-specification:'Hiragino Sans GB, Normal';font-variant-ligatures:normal;font-variant-caps:normal;font-variant-numeric:normal;font-variant-east-asian:normal;fill:#000080;stroke-width:2.29761">AerGames</tspan></text>
  </g>
  <path
     d="M 31.571263,16.685713 C 33.412846,9.828615 28.65419,3.3474111 20.043803,1.2031009 11.433257,-0.9412489 3.9591309,2.5654101 2.1175473,9.4225073 1.3533821,12.26786 2.4479586,16.459815 6.0165112,22.804869 c 1.0683517,1.899629 2.1641233,4.123874 3.0927049,5.545065 l -1.0288889,3.38914 c 0.088529,0.494425 -0.086517,0.836605 0.5933885,1.005926 l 5.4731003,1.234324 c 0.679904,0.169329 0.936182,0.05697 1.073041,-0.486439 l 0.841778,-3.342362 c 1.527665,-0.809493 3.55747,-2.53584 5.448258,-3.698529 6.315603,-3.883529 9.297204,-6.920929 10.06137,-9.766281 z m -1.525777,-0.285522 c -0.731442,2.723511 -5.021579,6.056101 -9.489319,8.848947 l -2.013353,-0.431687 c 3.065951,-4.001225 5.100515,-7.39124 5.774946,-9.902469 0.858425,-3.196323 1.279835,-6.2552669 0.591297,-8.8678341 -0.131251,-0.497528 -0.289189,-0.9645429 -0.471833,-1.4014949 4.394597,2.7569048 6.786163,7.36865 5.608263,11.754536 z M 13.62969,32.74181 9.822698,31.746228 l 0.976414,-3.016579 3.619878,0.995582 z m 1.53136,-4.38553 -4.415173,-1.099542 C 10.202575,26.423361 9.1040952,24.955588 8.4904701,23.938625 l 0.0058,0.01151 c -0.7674739,-0.316614 1.3222614,0.319401 1.3256114,0.320201 0.0035,8.55e-4 9.2030892,1.958644 9.2030892,1.958644 -1.015172,0.586872 -2.891205,1.678779 -3.818461,2.172686 z M 19.751263,2.1809103 c 1.213334,0.3021653 2.588087,1.9598089 3.119541,3.9770661 0.613604,2.3286505 0.848539,5.5756596 0.06349,8.4987856 -0.63905,2.379509 -2.492782,5.583963 -5.632238,9.60742 L 11.022881,22.909403 C 10.302201,17.924084 10.95892,14.186387 11.598179,11.806118 12.383231,8.8829962 13.336049,5.9818821 15.0451,4.2316605 16.525527,2.7154371 18.538089,1.8787841 19.751263,2.1809103 Z M 3.7370395,9.8484 C 4.9149396,5.4625142 9.3283155,2.5454563 14.559905,2.1858343 14.180176,2.4827338 13.806595,2.8173805 13.441636,3.1913332 11.524109,5.154892 10.416587,7.9969115 9.5581616,11.193234 8.8835264,13.705224 8.92738,17.565704 9.5943642,22.496303 L 7.1056095,21.875609 C 3.9730253,16.230986 3.1140399,12.168125 3.7370395,9.8484 Z"
     fill="#051036"
     id="path6"
     style="display:inline;opacity:1;fill:#000080;stroke-width:1.46599"
     sodipodi:nodetypes="ssscccccsccssccsccsscccccccccccccscsccscssccsccs" />
</svg>
